<svg width="8" height="10" viewBox="0 0 8 10" fill="none" xmlns="http://www.w3.org/2000/svg">
<path d="M6.192 5.04L7.308 8.784L6.696 9.192C6.472 9.152 6.232 9.064 5.976 8.928C5.72 8.792 5.488 8.62 5.28 8.412L5.1 6.648L2.34 6.636L1.62 9H0.912C0.744 8.84 0.592 8.652 0.456 8.436C0.32 8.212 0.212 7.956 0.132 7.668L1.56 4.956L2.664 1.884L1.404 1.968C1.292 1.776 1.228 1.552 1.212 1.296C1.204 1.04 1.228 0.812 1.284 0.611999H3.744C3.896 0.692 4.064 0.808 4.248 0.96C4.44 1.104 4.624 1.268 4.8 1.452C4.984 1.628 5.14 1.812 5.268 2.004L6.192 5.04ZM2.736 5.376L4.956 5.352L4.944 5.22L3.9 1.956L2.736 5.376Z" fill="#008000"/>
</svg>
